<?xml version="1.0" encoding="UTF-8" standalone="no"?>
<!-- Created with Inkscape (http://www.inkscape.org/) -->

<svg
   width="500"
   height="500"
   viewBox="0 0 132.29166 132.29167"
   version="1.1"
   id="svg5"
   xml:space="preserve"
   inkscape:version="1.2.2 (b0a8486541, 2022-12-01)"
   sodipodi:docname="mobile.svg"
   xmlns:inkscape="http://www.inkscape.org/namespaces/inkscape"
   xmlns:sodipodi="http://sodipodi.sourceforge.net/DTD/sodipodi-0.dtd"
   xmlns="http://www.w3.org/2000/svg"
   xmlns:svg="http://www.w3.org/2000/svg"><sodipodi:namedview
     id="namedview7"
     pagecolor="#ffffff"
     bordercolor="#000000"
     borderopacity="0.25"
     inkscape:showpageshadow="2"
     inkscape:pageopacity="0.0"
     inkscape:pagecheckerboard="0"
     inkscape:deskcolor="#d1d1d1"
     inkscape:document-units="mm"
     showgrid="false"
     inkscape:zoom="1.572"
     inkscape:cx="250"
     inkscape:cy="250"
     inkscape:window-width="1920"
     inkscape:window-height="966"
     inkscape:window-x="0"
     inkscape:window-y="872"
     inkscape:window-maximized="1"
     inkscape:current-layer="g208" /><defs
     id="defs2" /><g
     inkscape:label="Camada 1"
     inkscape:groupmode="layer"
     id="layer1" /><g
     id="g208"
     transform="matrix(0.00601326,0,0,-0.00601326,-2.8419596e-5,132.29169)"><path
       d="M 14343.8,3193.1 H 7656.2 c -712.72,0 -1290.5,577.8 -1290.5,1290.5 v 14630 c 0,712.8 577.78,1290.5 1290.5,1290.5 h 6687.6 c 712.7,0 1290.5,-577.7 1290.5,-1290.5 v -14630 c 0,-712.7 -577.8,-1290.5 -1290.5,-1290.5"
       style="fill:#ddf4f9;fill-opacity:1;fill-rule:nonzero;stroke:none"
       id="path212" /><path
       d="m 15634.3,19113.6 v -14630 c 0,-712.7 -577.8,-1290.5 -1290.5,-1290.5 H 7656.2 c -610.77,0 -1122.55,424.4 -1256.3,994.3 1292.07,664 2488.09,1515.2 3533.5,2524 1928.7,1861 3339.4,4253.3 4034.5,6841.8 593.6,2210.2 668.6,4518.4 696.2,6810.8 557.8,-142.4 970.2,-648.2 970.2,-1250.4"
       style="fill:#c4e6ea;fill-opacity:1;fill-rule:nonzero;stroke:none"
       id="path214" /><path
       d="m 7656.2,20219.8 c -609.93,0 -1106.14,-496.2 -1106.14,-1106.2 v -14630 c 0,-609.9 496.21,-1106.1 1106.14,-1106.1 h 6687.6 c 609.9,0 1106.1,496.2 1106.1,1106.1 v 14630 c 0,610 -496.2,1106.2 -1106.1,1106.2 z m 6687.6,-17211 H 7656.2 c -813.24,0 -1474.86,661.6 -1474.86,1474.8 v 14630 c 0,813.3 661.62,1474.9 1474.86,1474.9 h 6687.6 c 813.2,0 1474.9,-661.6 1474.9,-1474.9 v -14630 c 0,-813.2 -661.7,-1474.8 -1474.9,-1474.8"
       style="fill:#1f283f;fill-opacity:1;fill-rule:nonzero;stroke:none"
       id="path216" /><path
       d="m 15922.4,14638.3 h -295 v 3023.5 h 295 v -3023.5"
       style="fill:#1f283f;fill-opacity:1;fill-rule:nonzero;stroke:none"
       id="path218" /><path
       d="m 6372.61,16472.7 h -294.97 v 1189.1 h 294.97 v -1189.1"
       style="fill:#1f283f;fill-opacity:1;fill-rule:nonzero;stroke:none"
       id="path220" /><path
       d="m 6372.61,14776.6 h -294.97 v 1189.1 h 294.97 v -1189.1"
       style="fill:#1f283f;fill-opacity:1;fill-rule:nonzero;stroke:none"
       id="path222" /><path
       d="M 12042.3,18956.6 H 9957.7 c -227.93,0 -412.69,184.7 -412.69,412.6 v 0 c 0,228 184.76,412.7 412.69,412.7 h 2084.6 c 227.9,0 412.7,-184.7 412.7,-412.7 v 0 c 0,-227.9 -184.8,-412.6 -412.7,-412.6"
       style="fill:#1f283f;fill-opacity:1;fill-rule:nonzero;stroke:none"
       id="path224" /><path
       d="m 11823.1,19369.2 c 0,-120.9 98,-218.9 219,-218.9 120.9,0 219,98 219,218.9 0,121 -98.1,219 -219,219 -121,0 -219,-98 -219,-219"
       style="fill:#040606;fill-opacity:1;fill-rule:nonzero;stroke:none"
       id="path226" /><path
       d="m 11911.3,19369.2 c 0,-72.2 58.6,-130.7 130.8,-130.7 72.2,0 130.7,58.5 130.7,130.7 0,72.2 -58.5,130.8 -130.7,130.8 -72.2,0 -130.8,-58.6 -130.8,-130.8"
       style="fill:#131a27;fill-opacity:1;fill-rule:nonzero;stroke:none"
       id="path228" /><path
       d="m 11318.7,19263.4 h -1225.1 c -58.5,0 -105.85,47.4 -105.85,105.8 0,58.5 47.35,105.9 105.85,105.9 h 1225.1 c 58.5,0 105.9,-47.4 105.9,-105.9 0,-58.4 -47.4,-105.8 -105.9,-105.8"
       style="fill:#040606;fill-opacity:1;fill-rule:nonzero;stroke:none"
       id="path230" /><path
       d="m 14428.1,1746.3 c 0,-184.9 -1534.8,-334.8 -3428.1,-334.8 -1893.29,0 -3428.1,149.9 -3428.1,334.8 0,185 1534.81,334.9 3428.1,334.9 1893.3,0 3428.1,-149.9 3428.1,-334.9"
       style="fill:#d8e4e4;fill-opacity:1;fill-rule:nonzero;stroke:none"
       id="path232" /></g></svg>
